<?xml version="1.0" encoding="UTF-8" standalone="no"?>
<!-- Created with Inkscape (http://www.inkscape.org/) -->

<svg
   xmlns:dc="http://purl.org/dc/elements/1.1/"
   xmlns:cc="http://creativecommons.org/ns#"
   xmlns:rdf="http://www.w3.org/1999/02/22-rdf-syntax-ns#"
   xmlns:svg="http://www.w3.org/2000/svg"
   xmlns="http://www.w3.org/2000/svg"
   xmlns:sodipodi="http://sodipodi.sourceforge.net/DTD/sodipodi-0.dtd"
   xmlns:inkscape="http://www.inkscape.org/namespaces/inkscape"
   width="122.22667mm"
   height="36.189129mm"
   viewBox="0 0 433.08662 128.2292"
   id="svg2"
   version="1.1"
   inkscape:version="0.91 r13725"
   sodipodi:docname="SelfCollisionGrid.svg">
  <defs
     id="defs4" />
  <sodipodi:namedview
     id="base"
     pagecolor="#ffffff"
     bordercolor="#666666"
     borderopacity="1.0"
     inkscape:pageopacity="0.0"
     inkscape:pageshadow="2"
     inkscape:zoom="0.99999999"
     inkscape:cx="274.11154"
     inkscape:cy="56.525744"
     inkscape:document-units="px"
     inkscape:current-layer="layer1"
     showgrid="true"
     inkscape:object-paths="false"
     inkscape:object-nodes="true"
     showguides="true"
     inkscape:guide-bbox="true"
     inkscape:snap-text-baseline="true"
     inkscape:window-width="1920"
     inkscape:window-height="1138"
     inkscape:window-x="-8"
     inkscape:window-y="-8"
     inkscape:window-maximized="1"
     fit-margin-top="1"
     fit-margin-left="1"
     fit-margin-right="1"
     fit-margin-bottom="1">
    <inkscape:grid
       type="xygrid"
       id="grid4136"
       originx="-73.456695"
       originy="-893.45668" />
    <sodipodi:guide
       position="109.54331,29.543308"
       orientation="0,1"
       id="guide4232" />
    <sodipodi:guide
       position="186.54331,66.543307"
       orientation="1,0"
       id="guide4378" />
    <sodipodi:guide
       position="246.54331,66.543307"
       orientation="1,0"
       id="guide4380" />
  </sodipodi:namedview>
  <metadata
     id="metadata7">
    <rdf:RDF>
      <cc:Work
         rdf:about="">
        <dc:format>image/svg+xml</dc:format>
        <dc:type
           rdf:resource="http://purl.org/dc/dcmitype/StillImage" />
        <dc:title></dc:title>
      </cc:Work>
    </rdf:RDF>
  </metadata>
  <g
     inkscape:label="Layer 1"
     inkscape:groupmode="layer"
     id="layer1"
     transform="translate(-73.456693,-30.676319)">
    <path
       style="fill:none;fill-opacity:1;stroke:#000000;stroke-width:6;stroke-linecap:butt;stroke-miterlimit:4;stroke-dasharray:none;stroke-dashoffset:0;stroke-opacity:1"
       d="m 80,92.362206 60,0 0,60.000004 -60,0 z"
       id="rect4142" />
    <path
       style="fill:none;fill-opacity:1;stroke:#000000;stroke-width:6;stroke-linecap:butt;stroke-miterlimit:4;stroke-dasharray:none;stroke-dashoffset:0;stroke-opacity:1"
       d="m 140,92.362206 60,0 0,60.000004 -60,0 z"
       id="rect4142-4" />
    <path
       style="fill:none;fill-opacity:1;stroke:#000000;stroke-width:6;stroke-linecap:butt;stroke-miterlimit:4;stroke-dasharray:none;stroke-dashoffset:0;stroke-opacity:1"
       d="m 200,92.362206 60,0 0,60.000004 -60,0 z"
       id="rect4142-4-8" />
    <path
       style="fill:none;fill-opacity:1;stroke:#000000;stroke-width:6;stroke-linecap:butt;stroke-miterlimit:4;stroke-dasharray:6, 6;stroke-dashoffset:0;stroke-opacity:1"
       d="m 260,92.362206 60,0 0,60.000004 -60,0 z"
       id="rect4142-4-0" />
    <path
       style="fill:none;fill-opacity:1;stroke:#000000;stroke-width:6;stroke-linecap:butt;stroke-miterlimit:4;stroke-dasharray:none;stroke-dashoffset:0;stroke-opacity:1"
       d="m 320,92.362206 60,0 0,60.000004 -60,0 z"
       id="rect4142-4-8-5" />
    <path
       style="fill:none;fill-opacity:1;stroke:#000000;stroke-width:6;stroke-linecap:butt;stroke-miterlimit:4;stroke-dasharray:none;stroke-dashoffset:0;stroke-opacity:1"
       d="m 380,92.362206 60,0 0,60.000004 -60,0 z"
       id="rect4142-4-0-0" />
    <path
       style="fill:none;fill-opacity:1;stroke:#000000;stroke-width:6;stroke-linecap:butt;stroke-miterlimit:4;stroke-dasharray:none;stroke-dashoffset:0;stroke-opacity:1"
       d="m 440,92.362206 60,0 0,60.000004 -60,0 z"
       id="rect4142-4-8-5-9" />
    <path
       style="fill:none;fill-rule:evenodd;stroke:#000000;stroke-width:2px;stroke-linecap:butt;stroke-linejoin:miter;stroke-opacity:1"
       d="m 140,52.362203 0,20"
       id="path4212"
       inkscape:connector-curvature="0" />
    <path
       style="fill:none;fill-rule:evenodd;stroke:#000000;stroke-width:2px;stroke-linecap:butt;stroke-linejoin:miter;stroke-opacity:1"
       d="m 440,52.362203 0,20"
       id="path4214"
       inkscape:connector-curvature="0" />
    <g
       style="font-style:normal;font-weight:normal;font-size:15px;line-height:125%;font-family:sans-serif;text-align:center;letter-spacing:0px;word-spacing:0px;text-anchor:middle;fill:#000000;fill-opacity:1;stroke:none;stroke-width:1px;stroke-linecap:butt;stroke-linejoin:miter;stroke-opacity:1"
       id="flowRoot4216" />
    <g
       transform="translate(0,11.14963)"
       style="font-style:normal;font-weight:normal;font-size:25px;line-height:125%;font-family:sans-serif;text-align:center;letter-spacing:0px;word-spacing:0px;writing-mode:lr-tb;text-anchor:middle;fill:#000000;fill-opacity:1;stroke:none;stroke-width:1px;stroke-linecap:butt;stroke-linejoin:miter;stroke-opacity:1"
       id="flowRoot4224">
      <path
         d="m 116.28662,109.11834 q 0,4.89501 -1.53808,7.18994 -1.52588,2.28271 -4.74854,2.28271 -3.27148,0 -4.78516,-2.31933 -1.50146,-2.31934 -1.50146,-7.12891 0,-4.84619 1.52588,-7.15332 1.52588,-2.319337 4.76074,-2.319337 3.27148,0 4.77295,2.355957 1.51367,2.34375 1.51367,7.09229 z m -3.21045,5.54199 q 0.42725,-0.98877 0.57373,-2.31934 0.15869,-1.34277 0.15869,-3.22265 0,-1.85547 -0.15869,-3.22266 -0.14648,-1.36719 -0.58594,-2.31934 -0.42724,-0.93994 -1.17187,-1.41601 -0.73242,-0.47608 -1.89209,-0.47608 -1.14746,0 -1.9043,0.47608 -0.74463,0.47607 -1.18408,1.44043 -0.41504,0.90332 -0.57373,2.35595 -0.14648,1.45264 -0.14648,3.18604 0,1.9043 0.13427,3.18603 0.13428,1.28174 0.57373,2.29493 0.40284,0.95214 1.13526,1.45263 0.74463,0.50049 1.96533,0.50049 1.14746,0 1.9043,-0.47607 0.75683,-0.47608 1.17187,-1.44043 z"
         style=""
         id="path4194" />
    </g>
    <g
       transform="translate(60,11.14963)"
       style="font-style:normal;font-weight:normal;font-size:25px;line-height:125%;font-family:sans-serif;text-align:center;letter-spacing:0px;word-spacing:0px;writing-mode:lr-tb;text-anchor:middle;fill:#000000;fill-opacity:1;stroke:none;stroke-width:1px;stroke-linecap:butt;stroke-linejoin:miter;stroke-opacity:1"
       id="flowRoot4224-3">
      <path
         d="m 115.27344,118.21257 -9.83887,0 0,-1.85547 3.78418,0 0,-12.18261 -3.78418,0 0,-1.66016 q 0.76904,0 1.64795,-0.12207 0.87891,-0.13428 1.33057,-0.37842 0.56152,-0.30517 0.8789,-0.76904 0.32959,-0.47607 0.37842,-1.269531 l 1.89209,0 0,16.381831 3.71094,0 0,1.85547 z"
         style=""
         id="path4197" />
    </g>
    <g
       transform="translate(120,11.14963)"
       style="font-style:normal;font-weight:normal;font-size:25px;line-height:125%;font-family:sans-serif;text-align:center;letter-spacing:0px;word-spacing:0px;writing-mode:lr-tb;text-anchor:middle;fill:#000000;fill-opacity:1;stroke:none;stroke-width:1px;stroke-linecap:butt;stroke-linejoin:miter;stroke-opacity:1"
       id="flowRoot4224-3-8">
      <path
         d="m 116.31104,118.21257 -12.30469,0 0,-2.55127 q 1.28174,-1.09863 2.56347,-2.19726 1.29395,-1.09863 2.40479,-2.18506 2.34375,-2.27051 3.21045,-3.60107 0.8667,-1.34278 0.8667,-2.89307 0,-1.41602 -0.93994,-2.20947 -0.92774,-0.80567 -2.6001,-0.80567 -1.11084,0 -2.40479,0.39063 -1.29394,0.39062 -2.52685,1.19629 l -0.12207,0 0,-2.56348 q 0.8667,-0.42725 2.30713,-0.78125 1.45263,-0.354004 2.80761,-0.354004 2.79541,0 4.38233,1.354984 1.58691,1.34277 1.58691,3.6499 0,1.0376 -0.26855,1.94092 -0.25635,0.89111 -0.76905,1.69677 -0.47607,0.75684 -1.12304,1.48926 -0.63477,0.73242 -1.5503,1.62354 -1.30615,1.28174 -2.69775,2.49023 -1.3916,1.19629 -2.6001,2.22168 l 9.77784,0 0,2.0874 z"
         style=""
         id="path4200" />
    </g>
    <g
       transform="translate(240,11.14963)"
       style="font-style:normal;font-weight:normal;font-size:25px;line-height:125%;font-family:sans-serif;text-align:center;letter-spacing:0px;word-spacing:0px;writing-mode:lr-tb;text-anchor:middle;fill:#000000;fill-opacity:1;stroke:none;stroke-width:1px;stroke-linecap:butt;stroke-linejoin:miter;stroke-opacity:1"
       id="flowRoot4224-3-8-5" />
    <g
       transform="translate(300,11.149631)"
       style="font-style:normal;font-weight:normal;font-size:25px;line-height:125%;font-family:sans-serif;text-align:center;letter-spacing:0px;word-spacing:0px;writing-mode:lr-tb;text-anchor:middle;fill:#000000;fill-opacity:1;stroke:none;stroke-width:1px;stroke-linecap:butt;stroke-linejoin:miter;stroke-opacity:1"
       id="flowRoot4224-3-8-5-6">
      <path
         d="m 100.39307,118.21257 -12.304691,0 0,-2.55127 q 1.281738,-1.09863 2.563476,-2.19726 1.293946,-1.09863 2.404786,-2.18506 2.34375,-2.27051 3.210449,-3.60107 0.866699,-1.34278 0.866699,-2.89307 0,-1.41602 -0.939941,-2.20947 -0.927735,-0.80567 -2.600098,-0.80567 -1.11084,0 -2.404785,0.39063 -1.293945,0.39062 -2.526856,1.19629 l -0.12207,0 0,-2.56348 q 0.866699,-0.42725 2.307129,-0.78125 1.452637,-0.354004 2.807617,-0.354004 2.79541,0 4.382324,1.354984 1.586914,1.34277 1.586914,3.6499 0,1.0376 -0.268554,1.94092 -0.256348,0.89111 -0.769043,1.69677 -0.476074,0.75684 -1.123047,1.48926 -0.634766,0.73242 -1.550293,1.62354 -1.306152,1.28174 -2.697754,2.49023 -1.391602,1.19629 -2.600098,2.22168 l 9.777836,0 0,2.0874 z"
         style=""
         id="path4204" />
      <path
         d="m 116.16455,112.43865 q 0,1.26953 -0.46387,2.4292 -0.46386,1.15967 -1.26953,1.95312 -0.8789,0.85449 -2.09961,1.31836 -1.20849,0.45166 -2.80761,0.45166 -1.48926,0 -2.86866,-0.31738 -1.37939,-0.30518 -2.33154,-0.74463 l 0,-2.57568 0.1709,0 q 1.00098,0.63476 2.34375,1.08642 1.34277,0.43946 2.63672,0.43946 0.8667,0 1.67236,-0.24415 0.81787,-0.24414 1.45264,-0.85449 0.53711,-0.5249 0.80566,-1.25732 0.28076,-0.73242 0.28076,-1.69678 0,-0.93994 -0.32959,-1.58691 -0.31738,-0.64698 -0.89111,-1.0376 -0.63477,-0.46387 -1.55029,-0.64697 -0.90332,-0.19532 -2.02637,-0.19532 -1.07422,0 -2.0752,0.14649 -0.98876,0.14648 -1.70898,0.29297 l 0,-9.3628 10.9375,0 0,2.13623 -8.58154,0 0,4.83399 q 0.5249,-0.0488 1.07422,-0.0732 0.54931,-0.0244 0.95214,-0.0244 1.47706,0 2.5879,0.25635 1.11084,0.24414 2.03857,0.87891 0.97656,0.67138 1.51367,1.7334 0.53711,1.06201 0.53711,2.66113 z"
         style=""
         id="path4206" />
      <path
         d="m 132.64404,113.09783 -2.69775,0 0,5.11474 -2.34375,0 0,-5.11474 -8.70361,0 0,-2.80762 8.80127,-10.25391 2.24609,0 0,11.1084 2.69775,0 0,1.95313 z m -5.0415,-1.95313 0,-8.20312 -7.04346,8.20312 7.04346,0 z"
         style=""
         id="path4208" />
    </g>
    <g
       transform="translate(360,11.14963)"
       style="font-style:normal;font-weight:normal;font-size:25px;line-height:125%;font-family:sans-serif;text-align:center;letter-spacing:0px;word-spacing:0px;writing-mode:lr-tb;text-anchor:middle;fill:#000000;fill-opacity:1;stroke:none;stroke-width:1px;stroke-linecap:butt;stroke-linejoin:miter;stroke-opacity:1"
       id="flowRoot4224-3-8-5-6-1">
      <path
         d="m 100.39307,118.21257 -12.304691,0 0,-2.55127 q 1.281738,-1.09863 2.563476,-2.19726 1.293946,-1.09863 2.404786,-2.18506 2.34375,-2.27051 3.210449,-3.60107 0.866699,-1.34278 0.866699,-2.89307 0,-1.41602 -0.939941,-2.20947 -0.927735,-0.80567 -2.600098,-0.80567 -1.11084,0 -2.404785,0.39063 -1.293945,0.39062 -2.526856,1.19629 l -0.12207,0 0,-2.56348 q 0.866699,-0.42725 2.307129,-0.78125 1.452637,-0.354004 2.807617,-0.354004 2.79541,0 4.382324,1.354984 1.586914,1.34277 1.586914,3.6499 0,1.0376 -0.268554,1.94092 -0.256348,0.89111 -0.769043,1.69677 -0.476074,0.75684 -1.123047,1.48926 -0.634766,0.73242 -1.550293,1.62354 -1.306152,1.28174 -2.697754,2.49023 -1.391602,1.19629 -2.600098,2.22168 l 9.777836,0 0,2.0874 z"
         style=""
         id="path4211" />
      <path
         d="m 116.16455,112.43865 q 0,1.26953 -0.46387,2.4292 -0.46386,1.15967 -1.26953,1.95312 -0.8789,0.85449 -2.09961,1.31836 -1.20849,0.45166 -2.80761,0.45166 -1.48926,0 -2.86866,-0.31738 -1.37939,-0.30518 -2.33154,-0.74463 l 0,-2.57568 0.1709,0 q 1.00098,0.63476 2.34375,1.08642 1.34277,0.43946 2.63672,0.43946 0.8667,0 1.67236,-0.24415 0.81787,-0.24414 1.45264,-0.85449 0.53711,-0.5249 0.80566,-1.25732 0.28076,-0.73242 0.28076,-1.69678 0,-0.93994 -0.32959,-1.58691 -0.31738,-0.64698 -0.89111,-1.0376 -0.63477,-0.46387 -1.55029,-0.64697 -0.90332,-0.19532 -2.02637,-0.19532 -1.07422,0 -2.0752,0.14649 -0.98876,0.14648 -1.70898,0.29297 l 0,-9.3628 10.9375,0 0,2.13623 -8.58154,0 0,4.83399 q 0.5249,-0.0488 1.07422,-0.0732 0.54931,-0.0244 0.95214,-0.0244 1.47706,0 2.5879,0.25635 1.11084,0.24414 2.03857,0.87891 0.97656,0.67138 1.51367,1.7334 0.53711,1.06201 0.53711,2.66113 z"
         style=""
         id="path4213" />
      <path
         d="m 132.08252,112.43865 q 0,1.26953 -0.46387,2.4292 -0.46386,1.15967 -1.26953,1.95312 -0.87891,0.85449 -2.09961,1.31836 -1.20849,0.45166 -2.80762,0.45166 -1.48925,0 -2.86865,-0.31738 -1.37939,-0.30518 -2.33154,-0.74463 l 0,-2.57568 0.1709,0 q 1.00097,0.63476 2.34375,1.08642 1.34277,0.43946 2.63672,0.43946 0.8667,0 1.67236,-0.24415 0.81787,-0.24414 1.45264,-0.85449 0.53711,-0.5249 0.80566,-1.25732 0.28076,-0.73242 0.28076,-1.69678 0,-0.93994 -0.32959,-1.58691 -0.31738,-0.64698 -0.89111,-1.0376 -0.63477,-0.46387 -1.55029,-0.64697 -0.90332,-0.19532 -2.02637,-0.19532 -1.07422,0 -2.0752,0.14649 -0.98877,0.14648 -1.70898,0.29297 l 0,-9.3628 10.9375,0 0,2.13623 -8.58154,0 0,4.83399 q 0.5249,-0.0488 1.07422,-0.0732 0.54931,-0.0244 0.95214,-0.0244 1.47705,0 2.58789,0.25635 1.11084,0.24414 2.03858,0.87891 0.97656,0.67138 1.51367,1.7334 0.53711,1.06201 0.53711,2.66113 z"
         style=""
         id="path4215" />
    </g>
    <g
       transform="translate(240,11.14963)"
       style="font-style:normal;font-weight:normal;font-size:25px;line-height:125%;font-family:sans-serif;text-align:center;letter-spacing:0px;word-spacing:0px;writing-mode:lr-tb;text-anchor:middle;fill:#000000;fill-opacity:1;stroke:none;stroke-width:1px;stroke-linecap:butt;stroke-linejoin:miter;stroke-opacity:1"
       id="flowRoot4224-3-8-5-6-0">
      <path
         d="m 100.39307,118.21257 -12.304691,0 0,-2.55127 q 1.281738,-1.09863 2.563476,-2.19726 1.293946,-1.09863 2.404786,-2.18506 2.34375,-2.27051 3.210449,-3.60107 0.866699,-1.34278 0.866699,-2.89307 0,-1.41602 -0.939941,-2.20947 -0.927735,-0.80567 -2.600098,-0.80567 -1.11084,0 -2.404785,0.39063 -1.293945,0.39062 -2.526856,1.19629 l -0.12207,0 0,-2.56348 q 0.866699,-0.42725 2.307129,-0.78125 1.452637,-0.354004 2.807617,-0.354004 2.79541,0 4.382324,1.354984 1.586914,1.34277 1.586914,3.6499 0,1.0376 -0.268554,1.94092 -0.256348,0.89111 -0.769043,1.69677 -0.476074,0.75684 -1.123047,1.48926 -0.634766,0.73242 -1.550293,1.62354 -1.306152,1.28174 -2.697754,2.49023 -1.391602,1.19629 -2.600098,2.22168 l 9.777836,0 0,2.0874 z"
         style=""
         id="path4218" />
      <path
         d="m 116.16455,112.43865 q 0,1.26953 -0.46387,2.4292 -0.46386,1.15967 -1.26953,1.95312 -0.8789,0.85449 -2.09961,1.31836 -1.20849,0.45166 -2.80761,0.45166 -1.48926,0 -2.86866,-0.31738 -1.37939,-0.30518 -2.33154,-0.74463 l 0,-2.57568 0.1709,0 q 1.00098,0.63476 2.34375,1.08642 1.34277,0.43946 2.63672,0.43946 0.8667,0 1.67236,-0.24415 0.81787,-0.24414 1.45264,-0.85449 0.53711,-0.5249 0.80566,-1.25732 0.28076,-0.73242 0.28076,-1.69678 0,-0.93994 -0.32959,-1.58691 -0.31738,-0.64698 -0.89111,-1.0376 -0.63477,-0.46387 -1.55029,-0.64697 -0.90332,-0.19532 -2.02637,-0.19532 -1.07422,0 -2.0752,0.14649 -0.98876,0.14648 -1.70898,0.29297 l 0,-9.3628 10.9375,0 0,2.13623 -8.58154,0 0,4.83399 q 0.5249,-0.0488 1.07422,-0.0732 0.54931,-0.0244 0.95214,-0.0244 1.47706,0 2.5879,0.25635 1.11084,0.24414 2.03857,0.87891 0.97656,0.67138 1.51367,1.7334 0.53711,1.06201 0.53711,2.66113 z"
         style=""
         id="path4220" />
      <path
         d="m 130.62988,109.46013 q 0.58594,0.5249 0.96436,1.31836 0.37842,0.79346 0.37842,2.05078 0,1.24512 -0.45166,2.28272 -0.45166,1.0376 -1.26954,1.80664 -0.91552,0.85449 -2.16064,1.26953 -1.23291,0.40283 -2.70996,0.40283 -1.51367,0 -2.97852,-0.36621 -1.46484,-0.354 -2.40478,-0.78125 l 0,-2.55127 0.1831,0 q 1.0376,0.68359 2.44141,1.13526 1.40381,0.45166 2.70996,0.45166 0.76904,0 1.63574,-0.25635 0.8667,-0.25635 1.40381,-0.75684 0.56153,-0.53711 0.83008,-1.18408 0.28076,-0.64697 0.28076,-1.63574 0,-0.97657 -0.31738,-1.61133 -0.30518,-0.64697 -0.85449,-1.01318 -0.54932,-0.37842 -1.33057,-0.5127 -0.78125,-0.14648 -1.68457,-0.14648 l -1.09863,0 0,-2.02637 0.85449,0 q 1.85547,0 2.9541,-0.76904 1.11084,-0.78125 1.11084,-2.27051 0,-0.65918 -0.28076,-1.14746 -0.28076,-0.50049 -0.78125,-0.81787 -0.5249,-0.31739 -1.12305,-0.43946 -0.59814,-0.12207 -1.35498,-0.12207 -1.15967,0 -2.46582,0.41504 -1.30615,0.41504 -2.46582,1.17188 l -0.12207,0 0,-2.55127 q 0.8667,-0.42725 2.30713,-0.78125 1.45264,-0.366214 2.80762,-0.366214 1.33056,0 2.34375,0.244141 1.01318,0.244143 1.83105,0.781253 0.87891,0.58593 1.33057,1.41601 0.45166,0.83008 0.45166,1.94092 0,1.51367 -1.07422,2.64893 -1.06201,1.12304 -2.51465,1.41601 l 0,0.1709 q 0.58594,0.0977 1.34277,0.41504 0.75684,0.30518 1.28174,0.76904 z"
         style=""
         id="path4222" />
    </g>
    <path
       style="fill:none;fill-rule:evenodd;stroke:#000000;stroke-width:4;stroke-linecap:butt;stroke-linejoin:miter;stroke-miterlimit:4;stroke-dasharray:none;stroke-opacity:1"
       d="m 440,62.362205 -120,0"
       id="path4382"
       inkscape:connector-curvature="0" />
    <path
       style="fill:none;fill-rule:evenodd;stroke:#000000;stroke-width:4;stroke-linecap:butt;stroke-linejoin:miter;stroke-miterlimit:4;stroke-dasharray:none;stroke-opacity:1"
       d="m 260,62.362205 -120,0"
       id="path4384"
       inkscape:connector-curvature="0" />
    <path
       style="fill:none;fill-rule:evenodd;stroke:#000000;stroke-width:4;stroke-linecap:butt;stroke-linejoin:miter;stroke-miterlimit:4;stroke-dasharray:4, 4;stroke-dashoffset:0;stroke-opacity:1"
       d="m 260,62.362205 60,0"
       id="path4386"
       inkscape:connector-curvature="0" />
    <g
       transform="translate(180,-65.850369)"
       style="font-style:normal;font-weight:normal;font-size:25px;line-height:125%;font-family:sans-serif;text-align:center;letter-spacing:0px;word-spacing:0px;writing-mode:lr-tb;text-anchor:middle;fill:#000000;fill-opacity:1;stroke:none;stroke-width:1px;stroke-linecap:butt;stroke-linejoin:miter;stroke-opacity:1"
       id="flowRoot4224-3-8-6">
      <path
         d="m 65.773926,119.06414 -2.416992,0 0,-8.89893 -9.069825,0 0,8.89893 -2.416992,0 0,-18.17627 2.416992,0 0,7.1289 9.069825,0 0,-7.1289 2.416992,0 0,18.17627 z"
         style=""
         id="path4225" />
      <path
         d="m 81.081543,119.06414 -2.282715,0 0,-1.45264 q -0.305176,0.20752 -0.830078,0.58594 -0.512695,0.36621 -1.000977,0.58593 -0.57373,0.28077 -1.318359,0.46387 -0.744629,0.19531 -1.745605,0.19531 -1.843262,0 -3.125,-1.2207 -1.281739,-1.2207 -1.281739,-3.11279 0,-1.55029 0.65918,-2.50244 0.671387,-0.96436 1.904297,-1.51368 1.245117,-0.54931 2.990723,-0.74462 1.745605,-0.19532 3.747558,-0.29297 l 0,-0.35401 q 0,-0.78125 -0.280762,-1.29394 -0.268554,-0.5127 -0.78125,-0.80567 -0.488281,-0.28076 -1.171875,-0.37841 -0.683593,-0.0977 -1.428222,-0.0977 -0.903321,0 -2.01416,0.24414 -1.11084,0.23193 -2.294922,0.68359 l -0.122071,0 0,-2.33154 q 0.671387,-0.1831 1.940918,-0.40283 1.269532,-0.21973 2.502442,-0.21973 1.440429,0 2.502441,0.24414 1.074219,0.23194 1.855469,0.80567 0.769043,0.56152 1.171875,1.45263 0.402832,0.89112 0.402832,2.20948 l 0,9.25293 z m -2.282715,-3.35694 0,-3.79638 q -1.049805,0.061 -2.478027,0.1831 -1.416016,0.12207 -2.246094,0.35401 -0.98877,0.28076 -1.599121,0.8789 -0.610352,0.58594 -0.610352,1.62354 0,1.17187 0.708008,1.77002 0.708008,0.58593 2.160645,0.58593 1.208496,0 2.209472,-0.46386 1.000977,-0.47608 1.855469,-1.13526 z"
         style=""
         id="path4227" />
      <path
         d="m 95.266113,115.13347 q 0,1.86768 -1.550293,3.06397 -1.538086,1.19629 -4.211425,1.19629 -1.513672,0 -2.783204,-0.35401 -1.257324,-0.36621 -2.111816,-0.79345 l 0,-2.57569 0.12207,0 q 1.086426,0.81787 2.416992,1.30615 1.330567,0.47608 2.55127,0.47608 1.513672,0 2.368164,-0.48828 0.854492,-0.48828 0.854492,-1.53809 0,-0.80566 -0.463867,-1.2207 -0.463867,-0.41504 -1.782226,-0.70801 -0.488282,-0.10986 -1.281739,-0.25635 -0.78125,-0.14648 -1.428222,-0.31738 -1.794434,-0.47607 -2.55127,-1.3916 -0.744629,-0.92774 -0.744629,-2.27051 0,-0.84229 0.341797,-1.58691 0.354004,-0.74463 1.062012,-1.33057 0.683593,-0.57373 1.733398,-0.90332 1.062012,-0.3418 2.368164,-0.3418 1.220703,0 2.465821,0.30518 1.257324,0.29297 2.087402,0.72021 l 0,2.45362 -0.12207,0 q -0.878907,-0.64698 -2.136231,-1.08643 -1.257324,-0.45166 -2.46582,-0.45166 -1.257324,0 -2.124024,0.48828 -0.866699,0.47608 -0.866699,1.42822 0,0.84229 0.524902,1.26954 0.512696,0.42724 1.660157,0.6958 0.634765,0.14648 1.416015,0.29297 0.793457,0.14648 1.31836,0.26855 1.599121,0.36621 2.46582,1.25732 0.866699,0.90332 0.866699,2.39258 z"
         style=""
         id="path4229" />
      <path
         d="m 109.96338,119.06414 -2.29492,0 0,-7.76368 q 0,-0.93994 -0.10987,-1.75781 -0.10986,-0.83008 -0.40283,-1.29394 -0.30517,-0.5127 -0.8789,-0.75684 -0.57373,-0.25635 -1.48926,-0.25635 -0.93994,0 -1.96533,0.46387 -1.02539,0.46387 -1.96534,1.18408 l 0,10.18067 -2.294918,0 0,-18.99414 2.294918,0 0,6.87255 q 1.07422,-0.89111 2.22168,-1.3916 1.14746,-0.50049 2.35596,-0.50049 2.20947,0 3.36914,1.33057 1.15967,1.33057 1.15967,3.83301 l 0,8.8501 z"
         style=""
         id="path4231" />
      <path
         d="m 133.76709,119.06414 -2.28272,0 0,-1.45264 q -0.30517,0.20752 -0.83007,0.58594 -0.5127,0.36621 -1.00098,0.58593 -0.57373,0.28077 -1.31836,0.46387 -0.74463,0.19531 -1.7456,0.19531 -1.84327,0 -3.125,-1.2207 -1.28174,-1.2207 -1.28174,-3.11279 0,-1.55029 0.65918,-2.50244 0.67138,-0.96436 1.90429,-1.51368 1.24512,-0.54931 2.99073,-0.74462 1.7456,-0.19532 3.74755,-0.29297 l 0,-0.35401 q 0,-0.78125 -0.28076,-1.29394 -0.26855,-0.5127 -0.78125,-0.80567 -0.48828,-0.28076 -1.17187,-0.37841 -0.6836,-0.0977 -1.42822,-0.0977 -0.90332,0 -2.01416,0.24414 -1.11084,0.23193 -2.29493,0.68359 l -0.12207,0 0,-2.33154 q 0.67139,-0.1831 1.94092,-0.40283 1.26953,-0.21973 2.50244,-0.21973 1.44043,0 2.50244,0.24414 1.07422,0.23194 1.85547,0.80567 0.76905,0.56152 1.17188,1.45263 0.40283,0.89112 0.40283,2.20948 l 0,9.25293 z m -2.28272,-3.35694 0,-3.79638 q -1.0498,0.061 -2.47802,0.1831 -1.41602,0.12207 -2.2461,0.35401 -0.98877,0.28076 -1.59912,0.8789 -0.61035,0.58594 -0.61035,1.62354 0,1.17187 0.70801,1.77002 0.70801,0.58593 2.16064,0.58593 1.2085,0 2.20948,-0.46386 1.00097,-0.47608 1.85546,-1.13526 z"
         style=""
         id="path4233" />
      <path
         d="m 150.01465,119.06414 -2.89307,0 -3.86963,-5.23682 -3.89404,5.23682 -2.67334,0 5.32227,-6.79932 -5.27344,-6.83594 2.89306,0 3.84522,5.15137 3.85742,-5.15137 2.68555,0 -5.35889,6.71387 5.35889,6.92139 z"
         style=""
         id="path4235" />
      <path
         d="m 155.47119,103.14617 -2.58789,0 0,-2.38037 2.58789,0 0,2.38037 z m -0.14648,15.91797 -2.29492,0 0,-13.63526 2.29492,0 0,13.63526 z"
         style=""
         id="path4237" />
      <path
         d="m 169.53369,115.13347 q 0,1.86768 -1.55029,3.06397 -1.53809,1.19629 -4.21143,1.19629 -1.51367,0 -2.7832,-0.35401 -1.25732,-0.36621 -2.11182,-0.79345 l 0,-2.57569 0.12207,0 q 1.08643,0.81787 2.417,1.30615 1.33056,0.47608 2.55127,0.47608 1.51367,0 2.36816,-0.48828 0.85449,-0.48828 0.85449,-1.53809 0,-0.80566 -0.46387,-1.2207 -0.46386,-0.41504 -1.78222,-0.70801 -0.48828,-0.10986 -1.28174,-0.25635 -0.78125,-0.14648 -1.42822,-0.31738 -1.79444,-0.47607 -2.55127,-1.3916 -0.74463,-0.92774 -0.74463,-2.27051 0,-0.84229 0.3418,-1.58691 0.354,-0.74463 1.06201,-1.33057 0.68359,-0.57373 1.7334,-0.90332 1.06201,-0.3418 2.36816,-0.3418 1.2207,0 2.46582,0.30518 1.25732,0.29297 2.0874,0.72021 l 0,2.45362 -0.12207,0 q -0.8789,-0.64698 -2.13623,-1.08643 -1.25732,-0.45166 -2.46582,-0.45166 -1.25732,0 -2.12402,0.48828 -0.8667,0.47608 -0.8667,1.42822 0,0.84229 0.5249,1.26954 0.5127,0.42724 1.66016,0.6958 0.63476,0.14648 1.41601,0.29297 0.79346,0.14648 1.31836,0.26855 1.59912,0.36621 2.46582,1.25732 0.8667,0.90332 0.8667,2.39258 z"
         style=""
         id="path4239" />
    </g>
  </g>
</svg>
